<svg width="23" height="46" viewBox="0 0 23 46" fill="none" xmlns="http://www.w3.org/2000/svg">
<path d="M1.49525 36.8224C0.194845 37.3678 -0.350067 38.9199 0.236794 40.1783L2.29228 44.4567C2.87956 45.6732 4.30582 46.2185 5.56428 45.6732C9.08797 44.163 12.1087 42.1914 14.5832 39.8423C17.562 36.9898 19.6171 33.7598 20.7082 30.1941C21.7988 26.6709 22.3438 21.7624 22.3438 15.4701V2.5919C22.3438 1.20759 21.2111 0.0749741 19.8268 0.0749741H3.341C1.95669 0.0749741 0.824076 1.20759 0.824076 2.5919V19.0777C0.824076 20.4625 1.95669 21.5946 3.341 21.5946H11.2693C11.1854 25.8319 10.1782 29.2293 8.33289 31.7886C6.82274 33.8437 4.55751 35.5216 1.49525 36.8224Z" fill="#E0E0E0"/>
</svg>
